<mxfile host="app.diagrams.net" modified="2022-09-22T06:57:43.042Z" agent="5.0 (Windows NT 10.0; Win64; x64) AppleWebKit/537.36 (KHTML, like Gecko) Chrome/105.0.0.0 Safari/537.36 Edg/105.0.1343.42" etag="AVDbNqyFZmlAaUB_SevT" version="20.3.3" type="github">
  <diagram id="C5RBs43oDa-KdzZeNtuy" name="Page-1">
    <mxGraphModel dx="864" dy="483" grid="1" gridSize="10" guides="1" tooltips="1" connect="1" arrows="1" fold="1" page="1" pageScale="1" pageWidth="2000" pageHeight="1100" background="#283618" math="0" shadow="0">
      <root>
        <mxCell id="WIyWlLk6GJQsqaUBKTNV-0" />
        <mxCell id="WIyWlLk6GJQsqaUBKTNV-1" parent="WIyWlLk6GJQsqaUBKTNV-0" />
        <mxCell id="zkfFHV4jXpPFQw0GAbJ--0" value="InsuranceHistoryOrder:AggregatedRoot" style="swimlane;fontStyle=2;align=center;verticalAlign=top;childLayout=stackLayout;horizontal=1;startSize=26;horizontalStack=0;resizeParent=1;resizeLast=0;collapsible=1;marginBottom=0;rounded=0;shadow=0;strokeWidth=1;fillColor=#BC6C25;strokeColor=#DDA15E;fontColor=#FEFAE0;" parent="WIyWlLk6GJQsqaUBKTNV-1" vertex="1">
          <mxGeometry x="1180" y="76" width="290" height="944" as="geometry">
            <mxRectangle x="1180" y="76" width="160" height="26" as="alternateBounds" />
          </mxGeometry>
        </mxCell>
        <mxCell id="zkfFHV4jXpPFQw0GAbJ--1" value="+Id:GUID" style="text;align=left;verticalAlign=top;spacingLeft=4;spacingRight=4;overflow=hidden;rotatable=0;points=[[0,0.5],[1,0.5]];portConstraint=eastwest;fontColor=#FEFAE0;" parent="zkfFHV4jXpPFQw0GAbJ--0" vertex="1">
          <mxGeometry y="26" width="290" height="26" as="geometry" />
        </mxCell>
        <mxCell id="zkfFHV4jXpPFQw0GAbJ--2" value="+InsProvider: string&#xa;" style="text;align=left;verticalAlign=top;spacingLeft=4;spacingRight=4;overflow=hidden;rotatable=0;points=[[0,0.5],[1,0.5]];portConstraint=eastwest;rounded=0;shadow=0;html=0;fontColor=#FEFAE0;" parent="zkfFHV4jXpPFQw0GAbJ--0" vertex="1">
          <mxGeometry y="52" width="290" height="26" as="geometry" />
        </mxCell>
        <mxCell id="zkfFHV4jXpPFQw0GAbJ--3" value="+ImportType: ImportType" style="text;align=left;verticalAlign=top;spacingLeft=4;spacingRight=4;overflow=hidden;rotatable=0;points=[[0,0.5],[1,0.5]];portConstraint=eastwest;rounded=0;shadow=0;html=0;fontColor=#FEFAE0;" parent="zkfFHV4jXpPFQw0GAbJ--0" vertex="1">
          <mxGeometry y="78" width="290" height="26" as="geometry" />
        </mxCell>
        <mxCell id="rWxkm9rvbSgZgqi4Fs6q-6" value="+ImportTime: DateTime" style="text;align=left;verticalAlign=top;spacingLeft=4;spacingRight=4;overflow=hidden;rotatable=0;points=[[0,0.5],[1,0.5]];portConstraint=eastwest;rounded=0;shadow=0;html=0;fontColor=#FEFAE0;" vertex="1" parent="zkfFHV4jXpPFQw0GAbJ--0">
          <mxGeometry y="104" width="290" height="26" as="geometry" />
        </mxCell>
        <mxCell id="rWxkm9rvbSgZgqi4Fs6q-5" value="+ProductCode: string" style="text;align=left;verticalAlign=top;spacingLeft=4;spacingRight=4;overflow=hidden;rotatable=0;points=[[0,0.5],[1,0.5]];portConstraint=eastwest;rounded=0;shadow=0;html=0;fontColor=#FEFAE0;" vertex="1" parent="zkfFHV4jXpPFQw0GAbJ--0">
          <mxGeometry y="130" width="290" height="26" as="geometry" />
        </mxCell>
        <mxCell id="rWxkm9rvbSgZgqi4Fs6q-4" value="+InsType:Â InsType" style="text;align=left;verticalAlign=top;spacingLeft=4;spacingRight=4;overflow=hidden;rotatable=0;points=[[0,0.5],[1,0.5]];portConstraint=eastwest;rounded=0;shadow=0;html=0;fontColor=#FEFAE0;" vertex="1" parent="zkfFHV4jXpPFQw0GAbJ--0">
          <mxGeometry y="156" width="290" height="26" as="geometry" />
        </mxCell>
        <mxCell id="rWxkm9rvbSgZgqi4Fs6q-3" value="+PolicyCode: string" style="text;align=left;verticalAlign=top;spacingLeft=4;spacingRight=4;overflow=hidden;rotatable=0;points=[[0,0.5],[1,0.5]];portConstraint=eastwest;rounded=0;shadow=0;html=0;fontColor=#FEFAE0;" vertex="1" parent="zkfFHV4jXpPFQw0GAbJ--0">
          <mxGeometry y="182" width="290" height="26" as="geometry" />
        </mxCell>
        <mxCell id="rWxkm9rvbSgZgqi4Fs6q-2" value="+ApplicantName: string" style="text;align=left;verticalAlign=top;spacingLeft=4;spacingRight=4;overflow=hidden;rotatable=0;points=[[0,0.5],[1,0.5]];portConstraint=eastwest;rounded=0;shadow=0;html=0;fontColor=#FEFAE0;" vertex="1" parent="zkfFHV4jXpPFQw0GAbJ--0">
          <mxGeometry y="208" width="290" height="26" as="geometry" />
        </mxCell>
        <mxCell id="rWxkm9rvbSgZgqi4Fs6q-7" value="+ApplicantCertType: CertType?" style="text;align=left;verticalAlign=top;spacingLeft=4;spacingRight=4;overflow=hidden;rotatable=0;points=[[0,0.5],[1,0.5]];portConstraint=eastwest;rounded=0;shadow=0;html=0;fontColor=#FEFAE0;" vertex="1" parent="zkfFHV4jXpPFQw0GAbJ--0">
          <mxGeometry y="234" width="290" height="26" as="geometry" />
        </mxCell>
        <mxCell id="rWxkm9rvbSgZgqi4Fs6q-27" value="+ApplicantId: string" style="text;align=left;verticalAlign=top;spacingLeft=4;spacingRight=4;overflow=hidden;rotatable=0;points=[[0,0.5],[1,0.5]];portConstraint=eastwest;rounded=0;shadow=0;html=0;fontColor=#FEFAE0;" vertex="1" parent="zkfFHV4jXpPFQw0GAbJ--0">
          <mxGeometry y="260" width="290" height="26" as="geometry" />
        </mxCell>
        <mxCell id="rWxkm9rvbSgZgqi4Fs6q-26" value="+ApplicantGender: Gender" style="text;align=left;verticalAlign=top;spacingLeft=4;spacingRight=4;overflow=hidden;rotatable=0;points=[[0,0.5],[1,0.5]];portConstraint=eastwest;rounded=0;shadow=0;html=0;fontColor=#FEFAE0;" vertex="1" parent="zkfFHV4jXpPFQw0GAbJ--0">
          <mxGeometry y="286" width="290" height="26" as="geometry" />
        </mxCell>
        <mxCell id="rWxkm9rvbSgZgqi4Fs6q-25" value="+ApplicantBirthday: DateTime?" style="text;align=left;verticalAlign=top;spacingLeft=4;spacingRight=4;overflow=hidden;rotatable=0;points=[[0,0.5],[1,0.5]];portConstraint=eastwest;rounded=0;shadow=0;html=0;fontColor=#FEFAE0;" vertex="1" parent="zkfFHV4jXpPFQw0GAbJ--0">
          <mxGeometry y="312" width="290" height="26" as="geometry" />
        </mxCell>
        <mxCell id="rWxkm9rvbSgZgqi4Fs6q-24" value="+ApplicantPhone: string" style="text;align=left;verticalAlign=top;spacingLeft=4;spacingRight=4;overflow=hidden;rotatable=0;points=[[0,0.5],[1,0.5]];portConstraint=eastwest;rounded=0;shadow=0;html=0;fontColor=#FEFAE0;" vertex="1" parent="zkfFHV4jXpPFQw0GAbJ--0">
          <mxGeometry y="338" width="290" height="26" as="geometry" />
        </mxCell>
        <mxCell id="rWxkm9rvbSgZgqi4Fs6q-23" value="+ApplicantEmail: string" style="text;align=left;verticalAlign=top;spacingLeft=4;spacingRight=4;overflow=hidden;rotatable=0;points=[[0,0.5],[1,0.5]];portConstraint=eastwest;rounded=0;shadow=0;html=0;fontColor=#FEFAE0;" vertex="1" parent="zkfFHV4jXpPFQw0GAbJ--0">
          <mxGeometry y="364" width="290" height="26" as="geometry" />
        </mxCell>
        <mxCell id="rWxkm9rvbSgZgqi4Fs6q-22" value="+ApplicantCity: string" style="text;align=left;verticalAlign=top;spacingLeft=4;spacingRight=4;overflow=hidden;rotatable=0;points=[[0,0.5],[1,0.5]];portConstraint=eastwest;rounded=0;shadow=0;html=0;fontColor=#FEFAE0;" vertex="1" parent="zkfFHV4jXpPFQw0GAbJ--0">
          <mxGeometry y="390" width="290" height="26" as="geometry" />
        </mxCell>
        <mxCell id="rWxkm9rvbSgZgqi4Fs6q-21" value="+InsurantName: string" style="text;align=left;verticalAlign=top;spacingLeft=4;spacingRight=4;overflow=hidden;rotatable=0;points=[[0,0.5],[1,0.5]];portConstraint=eastwest;rounded=0;shadow=0;html=0;fontColor=#FEFAE0;" vertex="1" parent="zkfFHV4jXpPFQw0GAbJ--0">
          <mxGeometry y="416" width="290" height="26" as="geometry" />
        </mxCell>
        <mxCell id="rWxkm9rvbSgZgqi4Fs6q-20" value="+InsurantCertType: CertType" style="text;align=left;verticalAlign=top;spacingLeft=4;spacingRight=4;overflow=hidden;rotatable=0;points=[[0,0.5],[1,0.5]];portConstraint=eastwest;rounded=0;shadow=0;html=0;fontColor=#FEFAE0;" vertex="1" parent="zkfFHV4jXpPFQw0GAbJ--0">
          <mxGeometry y="442" width="290" height="26" as="geometry" />
        </mxCell>
        <mxCell id="rWxkm9rvbSgZgqi4Fs6q-19" value="+InsurantId: string" style="text;align=left;verticalAlign=top;spacingLeft=4;spacingRight=4;overflow=hidden;rotatable=0;points=[[0,0.5],[1,0.5]];portConstraint=eastwest;rounded=0;shadow=0;html=0;fontColor=#FEFAE0;" vertex="1" parent="zkfFHV4jXpPFQw0GAbJ--0">
          <mxGeometry y="468" width="290" height="26" as="geometry" />
        </mxCell>
        <mxCell id="rWxkm9rvbSgZgqi4Fs6q-18" value="+InsurantGender: Gender" style="text;align=left;verticalAlign=top;spacingLeft=4;spacingRight=4;overflow=hidden;rotatable=0;points=[[0,0.5],[1,0.5]];portConstraint=eastwest;rounded=0;shadow=0;html=0;fontColor=#FEFAE0;" vertex="1" parent="zkfFHV4jXpPFQw0GAbJ--0">
          <mxGeometry y="494" width="290" height="26" as="geometry" />
        </mxCell>
        <mxCell id="rWxkm9rvbSgZgqi4Fs6q-17" value="+InsurantBirthday: DateTime?" style="text;align=left;verticalAlign=top;spacingLeft=4;spacingRight=4;overflow=hidden;rotatable=0;points=[[0,0.5],[1,0.5]];portConstraint=eastwest;rounded=0;shadow=0;html=0;fontColor=#FEFAE0;" vertex="1" parent="zkfFHV4jXpPFQw0GAbJ--0">
          <mxGeometry y="520" width="290" height="26" as="geometry" />
        </mxCell>
        <mxCell id="rWxkm9rvbSgZgqi4Fs6q-16" value="+InsurantPhone: string" style="text;align=left;verticalAlign=top;spacingLeft=4;spacingRight=4;overflow=hidden;rotatable=0;points=[[0,0.5],[1,0.5]];portConstraint=eastwest;rounded=0;shadow=0;html=0;fontColor=#FEFAE0;" vertex="1" parent="zkfFHV4jXpPFQw0GAbJ--0">
          <mxGeometry y="546" width="290" height="26" as="geometry" />
        </mxCell>
        <mxCell id="rWxkm9rvbSgZgqi4Fs6q-15" value="+InsurantEmail: string" style="text;align=left;verticalAlign=top;spacingLeft=4;spacingRight=4;overflow=hidden;rotatable=0;points=[[0,0.5],[1,0.5]];portConstraint=eastwest;rounded=0;shadow=0;html=0;fontColor=#FEFAE0;" vertex="1" parent="zkfFHV4jXpPFQw0GAbJ--0">
          <mxGeometry y="572" width="290" height="26" as="geometry" />
        </mxCell>
        <mxCell id="rWxkm9rvbSgZgqi4Fs6q-14" value="+InsurantCity: string" style="text;align=left;verticalAlign=top;spacingLeft=4;spacingRight=4;overflow=hidden;rotatable=0;points=[[0,0.5],[1,0.5]];portConstraint=eastwest;rounded=0;shadow=0;html=0;fontColor=#FEFAE0;" vertex="1" parent="zkfFHV4jXpPFQw0GAbJ--0">
          <mxGeometry y="598" width="290" height="26" as="geometry" />
        </mxCell>
        <mxCell id="rWxkm9rvbSgZgqi4Fs6q-13" value="+Relationship: string" style="text;align=left;verticalAlign=top;spacingLeft=4;spacingRight=4;overflow=hidden;rotatable=0;points=[[0,0.5],[1,0.5]];portConstraint=eastwest;rounded=0;shadow=0;html=0;fontColor=#FEFAE0;" vertex="1" parent="zkfFHV4jXpPFQw0GAbJ--0">
          <mxGeometry y="624" width="290" height="26" as="geometry" />
        </mxCell>
        <mxCell id="rWxkm9rvbSgZgqi4Fs6q-12" value="+InsPremium: string" style="text;align=left;verticalAlign=top;spacingLeft=4;spacingRight=4;overflow=hidden;rotatable=0;points=[[0,0.5],[1,0.5]];portConstraint=eastwest;rounded=0;shadow=0;html=0;fontColor=#FEFAE0;" vertex="1" parent="zkfFHV4jXpPFQw0GAbJ--0">
          <mxGeometry y="650" width="290" height="26" as="geometry" />
        </mxCell>
        <mxCell id="rWxkm9rvbSgZgqi4Fs6q-11" value="+InsAmount: string" style="text;align=left;verticalAlign=top;spacingLeft=4;spacingRight=4;overflow=hidden;rotatable=0;points=[[0,0.5],[1,0.5]];portConstraint=eastwest;rounded=0;shadow=0;html=0;fontColor=#FEFAE0;" vertex="1" parent="zkfFHV4jXpPFQw0GAbJ--0">
          <mxGeometry y="676" width="290" height="26" as="geometry" />
        </mxCell>
        <mxCell id="rWxkm9rvbSgZgqi4Fs6q-10" value="+InsUnit: string" style="text;align=left;verticalAlign=top;spacingLeft=4;spacingRight=4;overflow=hidden;rotatable=0;points=[[0,0.5],[1,0.5]];portConstraint=eastwest;rounded=0;shadow=0;html=0;fontColor=#FEFAE0;" vertex="1" parent="zkfFHV4jXpPFQw0GAbJ--0">
          <mxGeometry y="702" width="290" height="26" as="geometry" />
        </mxCell>
        <mxCell id="rWxkm9rvbSgZgqi4Fs6q-9" value="+EffectiveDate: DateTime" style="text;align=left;verticalAlign=top;spacingLeft=4;spacingRight=4;overflow=hidden;rotatable=0;points=[[0,0.5],[1,0.5]];portConstraint=eastwest;rounded=0;shadow=0;html=0;fontColor=#FEFAE0;" vertex="1" parent="zkfFHV4jXpPFQw0GAbJ--0">
          <mxGeometry y="728" width="290" height="26" as="geometry" />
        </mxCell>
        <mxCell id="rWxkm9rvbSgZgqi4Fs6q-30" value="+CurrentEffectiveDate: DateTime" style="text;align=left;verticalAlign=top;spacingLeft=4;spacingRight=4;overflow=hidden;rotatable=0;points=[[0,0.5],[1,0.5]];portConstraint=eastwest;rounded=0;shadow=0;html=0;fontColor=#FEFAE0;" vertex="1" parent="zkfFHV4jXpPFQw0GAbJ--0">
          <mxGeometry y="754" width="290" height="26" as="geometry" />
        </mxCell>
        <mxCell id="rWxkm9rvbSgZgqi4Fs6q-29" value="+Period: string" style="text;align=left;verticalAlign=top;spacingLeft=4;spacingRight=4;overflow=hidden;rotatable=0;points=[[0,0.5],[1,0.5]];portConstraint=eastwest;rounded=0;shadow=0;html=0;fontColor=#FEFAE0;" vertex="1" parent="zkfFHV4jXpPFQw0GAbJ--0">
          <mxGeometry y="780" width="290" height="26" as="geometry" />
        </mxCell>
        <mxCell id="rWxkm9rvbSgZgqi4Fs6q-28" value="+Solution: string" style="text;align=left;verticalAlign=top;spacingLeft=4;spacingRight=4;overflow=hidden;rotatable=0;points=[[0,0.5],[1,0.5]];portConstraint=eastwest;rounded=0;shadow=0;html=0;fontColor=#FEFAE0;" vertex="1" parent="zkfFHV4jXpPFQw0GAbJ--0">
          <mxGeometry y="806" width="290" height="26" as="geometry" />
        </mxCell>
        <mxCell id="rWxkm9rvbSgZgqi4Fs6q-32" value="+RenewFlag :RenewFlag" style="text;align=left;verticalAlign=top;spacingLeft=4;spacingRight=4;overflow=hidden;rotatable=0;points=[[0,0.5],[1,0.5]];portConstraint=eastwest;rounded=0;shadow=0;html=0;fontColor=#FEFAE0;" vertex="1" parent="zkfFHV4jXpPFQw0GAbJ--0">
          <mxGeometry y="832" width="290" height="26" as="geometry" />
        </mxCell>
        <mxCell id="rWxkm9rvbSgZgqi4Fs6q-31" value="+CurrentPeriod: int" style="text;align=left;verticalAlign=top;spacingLeft=4;spacingRight=4;overflow=hidden;rotatable=0;points=[[0,0.5],[1,0.5]];portConstraint=eastwest;rounded=0;shadow=0;html=0;fontColor=#FEFAE0;" vertex="1" parent="zkfFHV4jXpPFQw0GAbJ--0">
          <mxGeometry y="858" width="290" height="26" as="geometry" />
        </mxCell>
        <mxCell id="rWxkm9rvbSgZgqi4Fs6q-33" value="+Link: string" style="text;align=left;verticalAlign=top;spacingLeft=4;spacingRight=4;overflow=hidden;rotatable=0;points=[[0,0.5],[1,0.5]];portConstraint=eastwest;rounded=0;shadow=0;html=0;fontColor=#FEFAE0;" vertex="1" parent="zkfFHV4jXpPFQw0GAbJ--0">
          <mxGeometry y="884" width="290" height="26" as="geometry" />
        </mxCell>
        <mxCell id="zkfFHV4jXpPFQw0GAbJ--4" value="" style="line;html=1;strokeWidth=1;align=left;verticalAlign=middle;spacingTop=-1;spacingLeft=3;spacingRight=3;rotatable=0;labelPosition=right;points=[];portConstraint=eastwest;labelBackgroundColor=#283618;fillColor=#BC6C25;strokeColor=#DDA15E;fontColor=#FEFAE0;" parent="zkfFHV4jXpPFQw0GAbJ--0" vertex="1">
          <mxGeometry y="910" width="290" height="8" as="geometry" />
        </mxCell>
        <mxCell id="zkfFHV4jXpPFQw0GAbJ--5" value="+InsuranceHistoryOrder(all property)" style="text;align=left;verticalAlign=top;spacingLeft=4;spacingRight=4;overflow=hidden;rotatable=0;points=[[0,0.5],[1,0.5]];portConstraint=eastwest;fontColor=#FEFAE0;" parent="zkfFHV4jXpPFQw0GAbJ--0" vertex="1">
          <mxGeometry y="918" width="290" height="26" as="geometry" />
        </mxCell>
        <mxCell id="rWxkm9rvbSgZgqi4Fs6q-37" value="ImportType:EnumClass" style="swimlane;fontStyle=1;align=center;verticalAlign=top;childLayout=stackLayout;horizontal=1;startSize=26;horizontalStack=0;resizeParent=1;resizeParentMax=0;resizeLast=0;collapsible=1;marginBottom=0;strokeColor=#006EAF;fillColor=#B5739D;fontColor=#ffffff;" vertex="1" parent="WIyWlLk6GJQsqaUBKTNV-1">
          <mxGeometry x="1591" y="99" width="160" height="104" as="geometry">
            <mxRectangle x="677" y="89" width="170" height="30" as="alternateBounds" />
          </mxGeometry>
        </mxCell>
        <mxCell id="rWxkm9rvbSgZgqi4Fs6q-38" value="+Manual" style="text;strokeColor=none;fillColor=none;align=left;verticalAlign=top;spacingLeft=4;spacingRight=4;overflow=hidden;rotatable=0;points=[[0,0.5],[1,0.5]];portConstraint=eastwest;fontColor=#FEFAE0;" vertex="1" parent="rWxkm9rvbSgZgqi4Fs6q-37">
          <mxGeometry y="26" width="160" height="26" as="geometry" />
        </mxCell>
        <mxCell id="rWxkm9rvbSgZgqi4Fs6q-42" value="+Pull" style="text;strokeColor=none;fillColor=none;align=left;verticalAlign=top;spacingLeft=4;spacingRight=4;overflow=hidden;rotatable=0;points=[[0,0.5],[1,0.5]];portConstraint=eastwest;fontColor=#FEFAE0;" vertex="1" parent="rWxkm9rvbSgZgqi4Fs6q-37">
          <mxGeometry y="52" width="160" height="26" as="geometry" />
        </mxCell>
        <mxCell id="rWxkm9rvbSgZgqi4Fs6q-41" value="+Push" style="text;strokeColor=none;fillColor=none;align=left;verticalAlign=top;spacingLeft=4;spacingRight=4;overflow=hidden;rotatable=0;points=[[0,0.5],[1,0.5]];portConstraint=eastwest;fontColor=#FEFAE0;" vertex="1" parent="rWxkm9rvbSgZgqi4Fs6q-37">
          <mxGeometry y="78" width="160" height="26" as="geometry" />
        </mxCell>
        <mxCell id="rWxkm9rvbSgZgqi4Fs6q-43" value="Relationship:EnumClass" style="swimlane;fontStyle=1;align=center;verticalAlign=top;childLayout=stackLayout;horizontal=1;startSize=26;horizontalStack=0;resizeParent=1;resizeParentMax=0;resizeLast=0;collapsible=1;marginBottom=0;strokeColor=#006EAF;fillColor=#B5739D;fontColor=#ffffff;" vertex="1" parent="WIyWlLk6GJQsqaUBKTNV-1">
          <mxGeometry x="1591" y="700" width="160" height="156" as="geometry" />
        </mxCell>
        <mxCell id="rWxkm9rvbSgZgqi4Fs6q-44" value="+Oneself" style="text;strokeColor=none;fillColor=none;align=left;verticalAlign=top;spacingLeft=4;spacingRight=4;overflow=hidden;rotatable=0;points=[[0,0.5],[1,0.5]];portConstraint=eastwest;fontColor=#FEFAE0;" vertex="1" parent="rWxkm9rvbSgZgqi4Fs6q-43">
          <mxGeometry y="26" width="160" height="26" as="geometry" />
        </mxCell>
        <mxCell id="rWxkm9rvbSgZgqi4Fs6q-45" value="+Parents" style="text;strokeColor=none;fillColor=none;align=left;verticalAlign=top;spacingLeft=4;spacingRight=4;overflow=hidden;rotatable=0;points=[[0,0.5],[1,0.5]];portConstraint=eastwest;fontColor=#FEFAE0;" vertex="1" parent="rWxkm9rvbSgZgqi4Fs6q-43">
          <mxGeometry y="52" width="160" height="26" as="geometry" />
        </mxCell>
        <mxCell id="rWxkm9rvbSgZgqi4Fs6q-48" value="+Spouse" style="text;strokeColor=none;fillColor=none;align=left;verticalAlign=top;spacingLeft=4;spacingRight=4;overflow=hidden;rotatable=0;points=[[0,0.5],[1,0.5]];portConstraint=eastwest;fontColor=#FEFAE0;" vertex="1" parent="rWxkm9rvbSgZgqi4Fs6q-43">
          <mxGeometry y="78" width="160" height="26" as="geometry" />
        </mxCell>
        <mxCell id="rWxkm9rvbSgZgqi4Fs6q-47" value="+Child" style="text;strokeColor=none;fillColor=none;align=left;verticalAlign=top;spacingLeft=4;spacingRight=4;overflow=hidden;rotatable=0;points=[[0,0.5],[1,0.5]];portConstraint=eastwest;fontColor=#FEFAE0;" vertex="1" parent="rWxkm9rvbSgZgqi4Fs6q-43">
          <mxGeometry y="104" width="160" height="26" as="geometry" />
        </mxCell>
        <mxCell id="rWxkm9rvbSgZgqi4Fs6q-46" value="+Other" style="text;strokeColor=none;fillColor=none;align=left;verticalAlign=top;spacingLeft=4;spacingRight=4;overflow=hidden;rotatable=0;points=[[0,0.5],[1,0.5]];portConstraint=eastwest;fontColor=#FEFAE0;" vertex="1" parent="rWxkm9rvbSgZgqi4Fs6q-43">
          <mxGeometry y="130" width="160" height="26" as="geometry" />
        </mxCell>
        <mxCell id="rWxkm9rvbSgZgqi4Fs6q-49" style="edgeStyle=orthogonalEdgeStyle;rounded=0;orthogonalLoop=1;jettySize=auto;html=1;exitX=1;exitY=0.5;exitDx=0;exitDy=0;entryX=0;entryY=0.5;entryDx=0;entryDy=0;strokeColor=#DDA15E;fontColor=#FEFAE0;fillColor=#BC6C25;" edge="1" parent="WIyWlLk6GJQsqaUBKTNV-1" source="rWxkm9rvbSgZgqi4Fs6q-13" target="rWxkm9rvbSgZgqi4Fs6q-43">
          <mxGeometry relative="1" as="geometry" />
        </mxCell>
        <mxCell id="rWxkm9rvbSgZgqi4Fs6q-51" style="edgeStyle=orthogonalEdgeStyle;rounded=0;orthogonalLoop=1;jettySize=auto;html=1;exitX=1;exitY=0.5;exitDx=0;exitDy=0;entryX=0;entryY=0.5;entryDx=0;entryDy=0;strokeColor=#DDA15E;fontColor=#FEFAE0;fillColor=#BC6C25;" edge="1" parent="WIyWlLk6GJQsqaUBKTNV-1" source="zkfFHV4jXpPFQw0GAbJ--3" target="rWxkm9rvbSgZgqi4Fs6q-37">
          <mxGeometry relative="1" as="geometry" />
        </mxCell>
        <mxCell id="rWxkm9rvbSgZgqi4Fs6q-53" value="InsType:EnumClass" style="swimlane;fontStyle=1;align=center;verticalAlign=top;childLayout=stackLayout;horizontal=1;startSize=26;horizontalStack=0;resizeParent=1;resizeParentMax=0;resizeLast=0;collapsible=1;marginBottom=0;strokeColor=#006EAF;fillColor=#B5739D;fontColor=#ffffff;" vertex="1" parent="WIyWlLk6GJQsqaUBKTNV-1">
          <mxGeometry x="1591" y="223" width="160" height="78" as="geometry" />
        </mxCell>
        <mxCell id="rWxkm9rvbSgZgqi4Fs6q-54" value="+IndividuaIInsurance" style="text;strokeColor=none;fillColor=none;align=left;verticalAlign=top;spacingLeft=4;spacingRight=4;overflow=hidden;rotatable=0;points=[[0,0.5],[1,0.5]];portConstraint=eastwest;fontColor=#FEFAE0;" vertex="1" parent="rWxkm9rvbSgZgqi4Fs6q-53">
          <mxGeometry y="26" width="160" height="26" as="geometry" />
        </mxCell>
        <mxCell id="rWxkm9rvbSgZgqi4Fs6q-55" value="+GroupCorporateInsurance" style="text;strokeColor=none;fillColor=none;align=left;verticalAlign=top;spacingLeft=4;spacingRight=4;overflow=hidden;rotatable=0;points=[[0,0.5],[1,0.5]];portConstraint=eastwest;fontColor=#FEFAE0;" vertex="1" parent="rWxkm9rvbSgZgqi4Fs6q-53">
          <mxGeometry y="52" width="160" height="26" as="geometry" />
        </mxCell>
        <mxCell id="rWxkm9rvbSgZgqi4Fs6q-57" style="edgeStyle=orthogonalEdgeStyle;rounded=0;orthogonalLoop=1;jettySize=auto;html=1;exitX=1;exitY=0.5;exitDx=0;exitDy=0;entryX=0;entryY=0.5;entryDx=0;entryDy=0;strokeColor=#DDA15E;fontColor=#FEFAE0;fillColor=#BC6C25;" edge="1" parent="WIyWlLk6GJQsqaUBKTNV-1" source="rWxkm9rvbSgZgqi4Fs6q-4" target="rWxkm9rvbSgZgqi4Fs6q-54">
          <mxGeometry relative="1" as="geometry" />
        </mxCell>
        <mxCell id="rWxkm9rvbSgZgqi4Fs6q-58" value="CertType:EnumClass" style="swimlane;fontStyle=1;align=center;verticalAlign=top;childLayout=stackLayout;horizontal=1;startSize=26;horizontalStack=0;resizeParent=1;resizeParentMax=0;resizeLast=0;collapsible=1;marginBottom=0;strokeColor=#006EAF;fillColor=#B5739D;fontColor=#ffffff;" vertex="1" parent="WIyWlLk6GJQsqaUBKTNV-1">
          <mxGeometry x="1591" y="330" width="300" height="234" as="geometry" />
        </mxCell>
        <mxCell id="rWxkm9rvbSgZgqi4Fs6q-59" value="+IDCard" style="text;strokeColor=none;fillColor=none;align=left;verticalAlign=top;spacingLeft=4;spacingRight=4;overflow=hidden;rotatable=0;points=[[0,0.5],[1,0.5]];portConstraint=eastwest;fontColor=#FEFAE0;" vertex="1" parent="rWxkm9rvbSgZgqi4Fs6q-58">
          <mxGeometry y="26" width="300" height="26" as="geometry" />
        </mxCell>
        <mxCell id="rWxkm9rvbSgZgqi4Fs6q-60" value="+Passport" style="text;strokeColor=none;fillColor=none;align=left;verticalAlign=top;spacingLeft=4;spacingRight=4;overflow=hidden;rotatable=0;points=[[0,0.5],[1,0.5]];portConstraint=eastwest;fontColor=#FEFAE0;" vertex="1" parent="rWxkm9rvbSgZgqi4Fs6q-58">
          <mxGeometry y="52" width="300" height="26" as="geometry" />
        </mxCell>
        <mxCell id="rWxkm9rvbSgZgqi4Fs6q-65" value="+MilitaryID" style="text;strokeColor=none;fillColor=none;align=left;verticalAlign=top;spacingLeft=4;spacingRight=4;overflow=hidden;rotatable=0;points=[[0,0.5],[1,0.5]];portConstraint=eastwest;fontColor=#FEFAE0;" vertex="1" parent="rWxkm9rvbSgZgqi4Fs6q-58">
          <mxGeometry y="78" width="300" height="26" as="geometry" />
        </mxCell>
        <mxCell id="rWxkm9rvbSgZgqi4Fs6q-64" value="+HomeReturnPermit" style="text;strokeColor=none;fillColor=none;align=left;verticalAlign=top;spacingLeft=4;spacingRight=4;overflow=hidden;rotatable=0;points=[[0,0.5],[1,0.5]];portConstraint=eastwest;fontColor=#FEFAE0;" vertex="1" parent="rWxkm9rvbSgZgqi4Fs6q-58">
          <mxGeometry y="104" width="300" height="26" as="geometry" />
        </mxCell>
        <mxCell id="rWxkm9rvbSgZgqi4Fs6q-63" value="+TaiwanCompatriotPermit" style="text;strokeColor=none;fillColor=none;align=left;verticalAlign=top;spacingLeft=4;spacingRight=4;overflow=hidden;rotatable=0;points=[[0,0.5],[1,0.5]];portConstraint=eastwest;fontColor=#FEFAE0;" vertex="1" parent="rWxkm9rvbSgZgqi4Fs6q-58">
          <mxGeometry y="130" width="300" height="26" as="geometry" />
        </mxCell>
        <mxCell id="rWxkm9rvbSgZgqi4Fs6q-68" value="+BirthMedicalCertificate" style="text;strokeColor=none;fillColor=none;align=left;verticalAlign=top;spacingLeft=4;spacingRight=4;overflow=hidden;rotatable=0;points=[[0,0.5],[1,0.5]];portConstraint=eastwest;fontColor=#FEFAE0;" vertex="1" parent="rWxkm9rvbSgZgqi4Fs6q-58">
          <mxGeometry y="156" width="300" height="26" as="geometry" />
        </mxCell>
        <mxCell id="rWxkm9rvbSgZgqi4Fs6q-67" value="+ForeignersPermanentResidencePermit" style="text;strokeColor=none;fillColor=none;align=left;verticalAlign=top;spacingLeft=4;spacingRight=4;overflow=hidden;rotatable=0;points=[[0,0.5],[1,0.5]];portConstraint=eastwest;fontColor=#FEFAE0;" vertex="1" parent="rWxkm9rvbSgZgqi4Fs6q-58">
          <mxGeometry y="182" width="300" height="26" as="geometry" />
        </mxCell>
        <mxCell id="rWxkm9rvbSgZgqi4Fs6q-66" value="+HongKongMacaoTaiwanResidentsResidencePermit" style="text;strokeColor=none;fillColor=none;align=left;verticalAlign=top;spacingLeft=4;spacingRight=4;overflow=hidden;rotatable=0;points=[[0,0.5],[1,0.5]];portConstraint=eastwest;fontColor=#FEFAE0;" vertex="1" parent="rWxkm9rvbSgZgqi4Fs6q-58">
          <mxGeometry y="208" width="300" height="26" as="geometry" />
        </mxCell>
        <mxCell id="rWxkm9rvbSgZgqi4Fs6q-71" value="Gender:EnumClass" style="swimlane;fontStyle=1;align=center;verticalAlign=top;childLayout=stackLayout;horizontal=1;startSize=26;horizontalStack=0;resizeParent=1;resizeParentMax=0;resizeLast=0;collapsible=1;marginBottom=0;strokeColor=#006EAF;fillColor=#B5739D;fontColor=#ffffff;" vertex="1" parent="WIyWlLk6GJQsqaUBKTNV-1">
          <mxGeometry x="1591" y="590" width="160" height="104" as="geometry" />
        </mxCell>
        <mxCell id="rWxkm9rvbSgZgqi4Fs6q-72" value="+Male" style="text;strokeColor=none;fillColor=none;align=left;verticalAlign=top;spacingLeft=4;spacingRight=4;overflow=hidden;rotatable=0;points=[[0,0.5],[1,0.5]];portConstraint=eastwest;fontColor=#FEFAE0;" vertex="1" parent="rWxkm9rvbSgZgqi4Fs6q-71">
          <mxGeometry y="26" width="160" height="26" as="geometry" />
        </mxCell>
        <mxCell id="rWxkm9rvbSgZgqi4Fs6q-73" value="+Female" style="text;strokeColor=none;fillColor=none;align=left;verticalAlign=top;spacingLeft=4;spacingRight=4;overflow=hidden;rotatable=0;points=[[0,0.5],[1,0.5]];portConstraint=eastwest;fontColor=#FEFAE0;" vertex="1" parent="rWxkm9rvbSgZgqi4Fs6q-71">
          <mxGeometry y="52" width="160" height="26" as="geometry" />
        </mxCell>
        <mxCell id="rWxkm9rvbSgZgqi4Fs6q-205" value="+Other" style="text;strokeColor=none;fillColor=none;align=left;verticalAlign=top;spacingLeft=4;spacingRight=4;overflow=hidden;rotatable=0;points=[[0,0.5],[1,0.5]];portConstraint=eastwest;fontColor=#FEFAE0;" vertex="1" parent="rWxkm9rvbSgZgqi4Fs6q-71">
          <mxGeometry y="78" width="160" height="26" as="geometry" />
        </mxCell>
        <mxCell id="rWxkm9rvbSgZgqi4Fs6q-79" value="RenewFlag:EnumClass" style="swimlane;fontStyle=1;align=center;verticalAlign=top;childLayout=stackLayout;horizontal=1;startSize=26;horizontalStack=0;resizeParent=1;resizeParentMax=0;resizeLast=0;collapsible=1;marginBottom=0;strokeColor=#006EAF;fillColor=#B5739D;fontColor=#ffffff;" vertex="1" parent="WIyWlLk6GJQsqaUBKTNV-1">
          <mxGeometry x="1591" y="880" width="160" height="104" as="geometry" />
        </mxCell>
        <mxCell id="rWxkm9rvbSgZgqi4Fs6q-80" value="+NewInsurance" style="text;strokeColor=none;fillColor=none;align=left;verticalAlign=top;spacingLeft=4;spacingRight=4;overflow=hidden;rotatable=0;points=[[0,0.5],[1,0.5]];portConstraint=eastwest;fontColor=#FEFAE0;" vertex="1" parent="rWxkm9rvbSgZgqi4Fs6q-79">
          <mxGeometry y="26" width="160" height="26" as="geometry" />
        </mxCell>
        <mxCell id="rWxkm9rvbSgZgqi4Fs6q-81" value="+RenewalInsurance" style="text;strokeColor=none;fillColor=none;align=left;verticalAlign=top;spacingLeft=4;spacingRight=4;overflow=hidden;rotatable=0;points=[[0,0.5],[1,0.5]];portConstraint=eastwest;fontColor=#FEFAE0;" vertex="1" parent="rWxkm9rvbSgZgqi4Fs6q-79">
          <mxGeometry y="52" width="160" height="26" as="geometry" />
        </mxCell>
        <mxCell id="rWxkm9rvbSgZgqi4Fs6q-82" value="+RenewalPeriod" style="text;strokeColor=none;fillColor=none;align=left;verticalAlign=top;spacingLeft=4;spacingRight=4;overflow=hidden;rotatable=0;points=[[0,0.5],[1,0.5]];portConstraint=eastwest;fontColor=#FEFAE0;" vertex="1" parent="rWxkm9rvbSgZgqi4Fs6q-79">
          <mxGeometry y="78" width="160" height="26" as="geometry" />
        </mxCell>
        <mxCell id="rWxkm9rvbSgZgqi4Fs6q-85" style="edgeStyle=orthogonalEdgeStyle;rounded=0;orthogonalLoop=1;jettySize=auto;html=1;exitX=1;exitY=0.5;exitDx=0;exitDy=0;entryX=0;entryY=0.5;entryDx=0;entryDy=0;strokeColor=#DDA15E;fontColor=#FEFAE0;fillColor=#BC6C25;" edge="1" parent="WIyWlLk6GJQsqaUBKTNV-1" source="rWxkm9rvbSgZgqi4Fs6q-32" target="rWxkm9rvbSgZgqi4Fs6q-79">
          <mxGeometry relative="1" as="geometry" />
        </mxCell>
        <mxCell id="rWxkm9rvbSgZgqi4Fs6q-102" style="edgeStyle=orthogonalEdgeStyle;rounded=0;orthogonalLoop=1;jettySize=auto;html=1;exitX=0.5;exitY=0;exitDx=0;exitDy=0;strokeColor=#DDA15E;fontColor=#FEFAE0;fillColor=#BC6C25;dashed=1;entryX=0.25;entryY=0;entryDx=0;entryDy=0;" edge="1" parent="WIyWlLk6GJQsqaUBKTNV-1" target="zkfFHV4jXpPFQw0GAbJ--0">
          <mxGeometry relative="1" as="geometry">
            <mxPoint x="970" y="40" as="targetPoint" />
            <mxPoint x="301" y="165" as="sourcePoint" />
            <Array as="points">
              <mxPoint x="301" y="110" />
              <mxPoint x="1130" y="110" />
              <mxPoint x="1130" y="40" />
              <mxPoint x="1253" y="40" />
            </Array>
          </mxGeometry>
        </mxCell>
        <mxCell id="rWxkm9rvbSgZgqi4Fs6q-100" value="&lt;p style=&quot;margin:0px;margin-top:4px;text-align:center;&quot;&gt;&lt;i&gt;&amp;lt;&amp;lt;Interface&amp;gt;&amp;gt;&lt;/i&gt;&lt;br&gt;&lt;b&gt;IProviderService&lt;/b&gt;&lt;/p&gt;&lt;hr size=&quot;1&quot;&gt;&lt;p style=&quot;margin:0px;margin-left:4px;&quot;&gt;+ GetOrderHistoryListAsync&amp;lt;T&amp;gt;(T inputParams)&lt;/p&gt;&lt;p style=&quot;margin:0px;margin-left:4px;&quot;&gt;: Task&amp;lt;IEnumerable&amp;lt;InsuranceHistoryOrder&amp;gt;&amp;gt;&lt;br&gt;&lt;/p&gt;" style="verticalAlign=top;align=left;overflow=fill;fontSize=12;fontFamily=Helvetica;html=1;strokeColor=#DDA15E;fontColor=#FEFAE0;fillColor=#B5739D;" vertex="1" parent="WIyWlLk6GJQsqaUBKTNV-1">
          <mxGeometry x="161" y="160" width="280" height="90" as="geometry" />
        </mxCell>
        <mxCell id="rWxkm9rvbSgZgqi4Fs6q-104" value="Â«interfaceÂ»&lt;br&gt;&lt;b&gt;ITaiKangProviderService&lt;/b&gt;" style="html=1;strokeColor=#DDA15E;fontColor=#FEFAE0;fillColor=#B5739D;" vertex="1" parent="WIyWlLk6GJQsqaUBKTNV-1">
          <mxGeometry x="144" y="301" width="173" height="50" as="geometry" />
        </mxCell>
        <mxCell id="rWxkm9rvbSgZgqi4Fs6q-106" value="" style="endArrow=block;dashed=1;endFill=0;endSize=12;html=1;rounded=0;strokeColor=#DDA15E;fontColor=#FEFAE0;fillColor=#BC6C25;exitX=0.5;exitY=0;exitDx=0;exitDy=0;entryX=0.25;entryY=1;entryDx=0;entryDy=0;" edge="1" parent="WIyWlLk6GJQsqaUBKTNV-1" source="rWxkm9rvbSgZgqi4Fs6q-104" target="rWxkm9rvbSgZgqi4Fs6q-100">
          <mxGeometry width="160" relative="1" as="geometry">
            <mxPoint x="261" y="300" as="sourcePoint" />
            <mxPoint x="421" y="300" as="targetPoint" />
          </mxGeometry>
        </mxCell>
        <mxCell id="rWxkm9rvbSgZgqi4Fs6q-110" value="&lt;font color=&quot;#000000&quot;&gt;å®ç°&lt;/font&gt;" style="endArrow=block;endSize=16;endFill=0;html=1;rounded=0;strokeColor=#DDA15E;fontColor=#FEFAE0;fillColor=#BC6C25;entryX=0.5;entryY=1;entryDx=0;entryDy=0;exitX=0.5;exitY=0;exitDx=0;exitDy=0;" edge="1" parent="WIyWlLk6GJQsqaUBKTNV-1" source="rWxkm9rvbSgZgqi4Fs6q-166" target="rWxkm9rvbSgZgqi4Fs6q-104">
          <mxGeometry width="160" relative="1" as="geometry">
            <mxPoint x="200" y="410" as="sourcePoint" />
            <mxPoint x="288.5" y="351" as="targetPoint" />
          </mxGeometry>
        </mxCell>
        <mxCell id="rWxkm9rvbSgZgqi4Fs6q-166" value="TaiKangProviderService" style="swimlane;fontStyle=1;align=center;verticalAlign=top;childLayout=stackLayout;horizontal=1;startSize=26;horizontalStack=0;resizeParent=1;resizeParentMax=0;resizeLast=0;collapsible=1;marginBottom=0;strokeColor=#DDA15E;fontColor=#FFFFFF;fillColor=#B5739D;" vertex="1" parent="WIyWlLk6GJQsqaUBKTNV-1">
          <mxGeometry x="40" y="412" width="380" height="70" as="geometry" />
        </mxCell>
        <mxCell id="rWxkm9rvbSgZgqi4Fs6q-169" value="+Â GetOrderHistoryListAsync(TaiKangeInputParams params):Â &#xa;IEnumerable&lt;InsuranceHistoryOrder&gt;" style="text;strokeColor=none;fillColor=none;align=left;verticalAlign=top;spacingLeft=4;spacingRight=4;overflow=hidden;rotatable=0;points=[[0,0.5],[1,0.5]];portConstraint=eastwest;fontColor=#FFFFFF;" vertex="1" parent="rWxkm9rvbSgZgqi4Fs6q-166">
          <mxGeometry y="26" width="380" height="44" as="geometry" />
        </mxCell>
        <mxCell id="rWxkm9rvbSgZgqi4Fs6q-177" style="edgeStyle=orthogonalEdgeStyle;rounded=0;orthogonalLoop=1;jettySize=auto;html=1;exitX=0.5;exitY=0;exitDx=0;exitDy=0;strokeColor=#DDA15E;fontColor=#FFFFFF;fillColor=#BC6C25;entryX=0.362;entryY=1.004;entryDx=0;entryDy=0;entryPerimeter=0;" edge="1" parent="WIyWlLk6GJQsqaUBKTNV-1" source="rWxkm9rvbSgZgqi4Fs6q-170" target="rWxkm9rvbSgZgqi4Fs6q-169">
          <mxGeometry relative="1" as="geometry" />
        </mxCell>
        <mxCell id="rWxkm9rvbSgZgqi4Fs6q-170" value="TaiKangeInputParams" style="swimlane;fontStyle=1;align=center;verticalAlign=top;childLayout=stackLayout;horizontal=1;startSize=26;horizontalStack=0;resizeParent=1;resizeParentMax=0;resizeLast=0;collapsible=1;marginBottom=0;strokeColor=#DDA15E;fontColor=#FFFFFF;fillColor=#B5739D;" vertex="1" parent="WIyWlLk6GJQsqaUBKTNV-1">
          <mxGeometry x="97" y="580" width="160" height="78" as="geometry" />
        </mxCell>
        <mxCell id="rWxkm9rvbSgZgqi4Fs6q-171" value="+ Name: string" style="text;strokeColor=none;fillColor=none;align=left;verticalAlign=top;spacingLeft=4;spacingRight=4;overflow=hidden;rotatable=0;points=[[0,0.5],[1,0.5]];portConstraint=eastwest;fontColor=#FFFFFF;" vertex="1" parent="rWxkm9rvbSgZgqi4Fs6q-170">
          <mxGeometry y="26" width="160" height="26" as="geometry" />
        </mxCell>
        <mxCell id="rWxkm9rvbSgZgqi4Fs6q-175" value="+ Id: string" style="text;strokeColor=none;fillColor=none;align=left;verticalAlign=top;spacingLeft=4;spacingRight=4;overflow=hidden;rotatable=0;points=[[0,0.5],[1,0.5]];portConstraint=eastwest;fontColor=#FFFFFF;" vertex="1" parent="rWxkm9rvbSgZgqi4Fs6q-170">
          <mxGeometry y="52" width="160" height="26" as="geometry" />
        </mxCell>
        <mxCell id="rWxkm9rvbSgZgqi4Fs6q-178" value="Â«interfaceÂ»&lt;br&gt;&lt;b&gt;IExcelProviderService&lt;/b&gt;" style="html=1;strokeColor=#DDA15E;fontColor=#FEFAE0;fillColor=#B5739D;" vertex="1" parent="WIyWlLk6GJQsqaUBKTNV-1">
          <mxGeometry x="480" y="301" width="173" height="50" as="geometry" />
        </mxCell>
        <mxCell id="rWxkm9rvbSgZgqi4Fs6q-179" value="ExcelProviderService" style="swimlane;fontStyle=1;align=center;verticalAlign=top;childLayout=stackLayout;horizontal=1;startSize=26;horizontalStack=0;resizeParent=1;resizeParentMax=0;resizeLast=0;collapsible=1;marginBottom=0;strokeColor=#DDA15E;fontColor=#FFFFFF;fillColor=#B5739D;" vertex="1" parent="WIyWlLk6GJQsqaUBKTNV-1">
          <mxGeometry x="472" y="412" width="380" height="70" as="geometry" />
        </mxCell>
        <mxCell id="rWxkm9rvbSgZgqi4Fs6q-180" value="+Â GetOrderHistoryListAsync(string pathUrl):Â &#xa;IEnumerable&lt;InsuranceHistoryOrder&gt;" style="text;strokeColor=none;fillColor=none;align=left;verticalAlign=top;spacingLeft=4;spacingRight=4;overflow=hidden;rotatable=0;points=[[0,0.5],[1,0.5]];portConstraint=eastwest;fontColor=#FFFFFF;" vertex="1" parent="rWxkm9rvbSgZgqi4Fs6q-179">
          <mxGeometry y="26" width="380" height="44" as="geometry" />
        </mxCell>
        <mxCell id="rWxkm9rvbSgZgqi4Fs6q-181" value="&lt;font color=&quot;#000000&quot;&gt;å®ç°&lt;/font&gt;" style="endArrow=block;endSize=16;endFill=0;html=1;rounded=0;strokeColor=#DDA15E;fontColor=#FEFAE0;fillColor=#BC6C25;entryX=0.5;entryY=1;entryDx=0;entryDy=0;exitX=0.25;exitY=0;exitDx=0;exitDy=0;" edge="1" parent="WIyWlLk6GJQsqaUBKTNV-1" source="rWxkm9rvbSgZgqi4Fs6q-179" target="rWxkm9rvbSgZgqi4Fs6q-178">
          <mxGeometry width="160" relative="1" as="geometry">
            <mxPoint x="240" y="422" as="sourcePoint" />
            <mxPoint x="240.5" y="361" as="targetPoint" />
          </mxGeometry>
        </mxCell>
        <mxCell id="rWxkm9rvbSgZgqi4Fs6q-182" value="" style="endArrow=block;dashed=1;endFill=0;endSize=12;html=1;rounded=0;strokeColor=#DDA15E;fontColor=#FEFAE0;fillColor=#BC6C25;exitX=0.5;exitY=0;exitDx=0;exitDy=0;entryX=1;entryY=0.5;entryDx=0;entryDy=0;" edge="1" parent="WIyWlLk6GJQsqaUBKTNV-1" source="rWxkm9rvbSgZgqi4Fs6q-178" target="rWxkm9rvbSgZgqi4Fs6q-100">
          <mxGeometry width="160" relative="1" as="geometry">
            <mxPoint x="566.08" y="271" as="sourcePoint" />
            <mxPoint x="566.58" y="220.0000000000001" as="targetPoint" />
            <Array as="points">
              <mxPoint x="567" y="205" />
            </Array>
          </mxGeometry>
        </mxCell>
        <mxCell id="rWxkm9rvbSgZgqi4Fs6q-188" style="edgeStyle=orthogonalEdgeStyle;rounded=0;orthogonalLoop=1;jettySize=auto;html=1;exitX=1;exitY=0.5;exitDx=0;exitDy=0;entryX=-0.015;entryY=0.718;entryDx=0;entryDy=0;entryPerimeter=0;strokeColor=#DDA15E;fontColor=#FFFFFF;fillColor=#BC6C25;" edge="1" parent="WIyWlLk6GJQsqaUBKTNV-1" source="rWxkm9rvbSgZgqi4Fs6q-18" target="rWxkm9rvbSgZgqi4Fs6q-72">
          <mxGeometry relative="1" as="geometry" />
        </mxCell>
        <mxCell id="rWxkm9rvbSgZgqi4Fs6q-189" style="edgeStyle=orthogonalEdgeStyle;rounded=0;orthogonalLoop=1;jettySize=auto;html=1;exitX=1;exitY=0.5;exitDx=0;exitDy=0;entryX=0;entryY=0.5;entryDx=0;entryDy=0;strokeColor=#DDA15E;fontColor=#FFFFFF;fillColor=#BC6C25;" edge="1" parent="WIyWlLk6GJQsqaUBKTNV-1" source="rWxkm9rvbSgZgqi4Fs6q-7" target="rWxkm9rvbSgZgqi4Fs6q-64">
          <mxGeometry relative="1" as="geometry" />
        </mxCell>
        <mxCell id="rWxkm9rvbSgZgqi4Fs6q-190" value="importRecoder:Entity" style="swimlane;fontStyle=1;align=center;verticalAlign=top;childLayout=stackLayout;horizontal=1;startSize=26;horizontalStack=0;resizeParent=1;resizeParentMax=0;resizeLast=0;collapsible=1;marginBottom=0;strokeColor=#BD7000;fillColor=#f0a30a;fontColor=#FFFFFF;" vertex="1" parent="WIyWlLk6GJQsqaUBKTNV-1">
          <mxGeometry x="760" y="580" width="190" height="242" as="geometry" />
        </mxCell>
        <mxCell id="rWxkm9rvbSgZgqi4Fs6q-191" value="+ Id: GUID" style="text;strokeColor=none;fillColor=none;align=left;verticalAlign=top;spacingLeft=4;spacingRight=4;overflow=hidden;rotatable=0;points=[[0,0.5],[1,0.5]];portConstraint=eastwest;fontColor=#FFFFFF;" vertex="1" parent="rWxkm9rvbSgZgqi4Fs6q-190">
          <mxGeometry y="26" width="190" height="26" as="geometry" />
        </mxCell>
        <mxCell id="rWxkm9rvbSgZgqi4Fs6q-197" value="+FileUrl: string" style="text;strokeColor=none;fillColor=none;align=left;verticalAlign=top;spacingLeft=4;spacingRight=4;overflow=hidden;rotatable=0;points=[[0,0.5],[1,0.5]];portConstraint=eastwest;fontColor=#FFFFFF;" vertex="1" parent="rWxkm9rvbSgZgqi4Fs6q-190">
          <mxGeometry y="52" width="190" height="26" as="geometry" />
        </mxCell>
        <mxCell id="rWxkm9rvbSgZgqi4Fs6q-196" value="+Result: Result(readonly)" style="text;strokeColor=none;fillColor=none;align=left;verticalAlign=top;spacingLeft=4;spacingRight=4;overflow=hidden;rotatable=0;points=[[0,0.5],[1,0.5]];portConstraint=eastwest;fontColor=#FFFFFF;" vertex="1" parent="rWxkm9rvbSgZgqi4Fs6q-190">
          <mxGeometry y="78" width="190" height="26" as="geometry" />
        </mxCell>
        <mxCell id="rWxkm9rvbSgZgqi4Fs6q-195" value="+RecordCount: int" style="text;strokeColor=none;fillColor=none;align=left;verticalAlign=top;spacingLeft=4;spacingRight=4;overflow=hidden;rotatable=0;points=[[0,0.5],[1,0.5]];portConstraint=eastwest;fontColor=#FFFFFF;" vertex="1" parent="rWxkm9rvbSgZgqi4Fs6q-190">
          <mxGeometry y="104" width="190" height="26" as="geometry" />
        </mxCell>
        <mxCell id="rWxkm9rvbSgZgqi4Fs6q-194" value="+FailReason: string" style="text;strokeColor=none;fillColor=none;align=left;verticalAlign=top;spacingLeft=4;spacingRight=4;overflow=hidden;rotatable=0;points=[[0,0.5],[1,0.5]];portConstraint=eastwest;fontColor=#FFFFFF;" vertex="1" parent="rWxkm9rvbSgZgqi4Fs6q-190">
          <mxGeometry y="130" width="190" height="26" as="geometry" />
        </mxCell>
        <mxCell id="rWxkm9rvbSgZgqi4Fs6q-199" value="+AddTime: DateTime" style="text;strokeColor=none;fillColor=none;align=left;verticalAlign=top;spacingLeft=4;spacingRight=4;overflow=hidden;rotatable=0;points=[[0,0.5],[1,0.5]];portConstraint=eastwest;fontColor=#FFFFFF;" vertex="1" parent="rWxkm9rvbSgZgqi4Fs6q-190">
          <mxGeometry y="156" width="190" height="26" as="geometry" />
        </mxCell>
        <mxCell id="rWxkm9rvbSgZgqi4Fs6q-198" value="+EndTime: DateTime?" style="text;strokeColor=none;fillColor=none;align=left;verticalAlign=top;spacingLeft=4;spacingRight=4;overflow=hidden;rotatable=0;points=[[0,0.5],[1,0.5]];portConstraint=eastwest;fontColor=#FFFFFF;" vertex="1" parent="rWxkm9rvbSgZgqi4Fs6q-190">
          <mxGeometry y="182" width="190" height="26" as="geometry" />
        </mxCell>
        <mxCell id="rWxkm9rvbSgZgqi4Fs6q-192" value="" style="line;strokeWidth=1;fillColor=none;align=left;verticalAlign=middle;spacingTop=-1;spacingLeft=3;spacingRight=3;rotatable=0;labelPosition=right;points=[];portConstraint=eastwest;strokeColor=inherit;fontColor=#FFFFFF;" vertex="1" parent="rWxkm9rvbSgZgqi4Fs6q-190">
          <mxGeometry y="208" width="190" height="8" as="geometry" />
        </mxCell>
        <mxCell id="rWxkm9rvbSgZgqi4Fs6q-193" value="+ SetResult(Result): void" style="text;strokeColor=none;fillColor=none;align=left;verticalAlign=top;spacingLeft=4;spacingRight=4;overflow=hidden;rotatable=0;points=[[0,0.5],[1,0.5]];portConstraint=eastwest;fontColor=#FFFFFF;" vertex="1" parent="rWxkm9rvbSgZgqi4Fs6q-190">
          <mxGeometry y="216" width="190" height="26" as="geometry" />
        </mxCell>
        <mxCell id="rWxkm9rvbSgZgqi4Fs6q-200" value="Result:EnumClass" style="swimlane;fontStyle=1;align=center;verticalAlign=top;childLayout=stackLayout;horizontal=1;startSize=26;horizontalStack=0;resizeParent=1;resizeParentMax=0;resizeLast=0;collapsible=1;marginBottom=0;strokeColor=#006EAF;fillColor=#B5739D;fontColor=#ffffff;" vertex="1" parent="WIyWlLk6GJQsqaUBKTNV-1">
          <mxGeometry x="1000" y="632" width="160" height="104" as="geometry" />
        </mxCell>
        <mxCell id="rWxkm9rvbSgZgqi4Fs6q-201" value="+Pending" style="text;strokeColor=none;fillColor=none;align=left;verticalAlign=top;spacingLeft=4;spacingRight=4;overflow=hidden;rotatable=0;points=[[0,0.5],[1,0.5]];portConstraint=eastwest;fontColor=#FEFAE0;" vertex="1" parent="rWxkm9rvbSgZgqi4Fs6q-200">
          <mxGeometry y="26" width="160" height="26" as="geometry" />
        </mxCell>
        <mxCell id="rWxkm9rvbSgZgqi4Fs6q-202" value="+Success" style="text;strokeColor=none;fillColor=none;align=left;verticalAlign=top;spacingLeft=4;spacingRight=4;overflow=hidden;rotatable=0;points=[[0,0.5],[1,0.5]];portConstraint=eastwest;fontColor=#FEFAE0;" vertex="1" parent="rWxkm9rvbSgZgqi4Fs6q-200">
          <mxGeometry y="52" width="160" height="26" as="geometry" />
        </mxCell>
        <mxCell id="rWxkm9rvbSgZgqi4Fs6q-203" value="+Fail" style="text;strokeColor=none;fillColor=none;align=left;verticalAlign=top;spacingLeft=4;spacingRight=4;overflow=hidden;rotatable=0;points=[[0,0.5],[1,0.5]];portConstraint=eastwest;fontColor=#FEFAE0;" vertex="1" parent="rWxkm9rvbSgZgqi4Fs6q-200">
          <mxGeometry y="78" width="160" height="26" as="geometry" />
        </mxCell>
        <mxCell id="rWxkm9rvbSgZgqi4Fs6q-204" style="edgeStyle=orthogonalEdgeStyle;rounded=0;orthogonalLoop=1;jettySize=auto;html=1;exitX=1;exitY=0.5;exitDx=0;exitDy=0;entryX=0;entryY=0.5;entryDx=0;entryDy=0;strokeColor=#DDA15E;fontColor=#FFFFFF;fillColor=#BC6C25;" edge="1" parent="WIyWlLk6GJQsqaUBKTNV-1" source="rWxkm9rvbSgZgqi4Fs6q-196" target="rWxkm9rvbSgZgqi4Fs6q-201">
          <mxGeometry relative="1" as="geometry" />
        </mxCell>
      </root>
    </mxGraphModel>
  </diagram>
</mxfile>
